<mxfile host="Electron" agent="Mozilla/5.0 (Windows NT 10.0; Win64; x64) AppleWebKit/537.36 (KHTML, like Gecko) draw.io/26.2.15 Chrome/134.0.6998.205 Electron/35.2.1 Safari/537.36" version="26.2.15">
  <diagram name="Page-1" id="1jRxc-TqemJTofgT7No7">
    <mxGraphModel dx="3303" dy="-125" grid="1" gridSize="10" guides="1" tooltips="1" connect="1" arrows="1" fold="1" page="1" pageScale="1" pageWidth="850" pageHeight="1100" math="0" shadow="0">
      <root>
        <mxCell id="0" />
        <mxCell id="1" parent="0" />
        <mxCell id="aI-YS_FKFS8ybjmrJAlZ-44" style="edgeStyle=orthogonalEdgeStyle;rounded=0;orthogonalLoop=1;jettySize=auto;html=1;exitX=1;exitY=0.5;exitDx=0;exitDy=0;entryX=0;entryY=0.5;entryDx=0;entryDy=0;" edge="1" parent="1" source="aI-YS_FKFS8ybjmrJAlZ-2" target="aI-YS_FKFS8ybjmrJAlZ-28">
          <mxGeometry relative="1" as="geometry">
            <Array as="points">
              <mxPoint x="-864" y="1700" />
              <mxPoint x="-844" y="1700" />
              <mxPoint x="-844" y="2173" />
            </Array>
          </mxGeometry>
        </mxCell>
        <mxCell id="aI-YS_FKFS8ybjmrJAlZ-68" style="edgeStyle=orthogonalEdgeStyle;rounded=0;orthogonalLoop=1;jettySize=auto;html=1;exitX=1;exitY=0.75;exitDx=0;exitDy=0;entryX=0;entryY=0.5;entryDx=0;entryDy=0;" edge="1" parent="1" source="aI-YS_FKFS8ybjmrJAlZ-2" target="aI-YS_FKFS8ybjmrJAlZ-26">
          <mxGeometry relative="1" as="geometry">
            <Array as="points">
              <mxPoint x="-834" y="1685" />
              <mxPoint x="-834" y="2033" />
            </Array>
          </mxGeometry>
        </mxCell>
        <mxCell id="aI-YS_FKFS8ybjmrJAlZ-69" style="edgeStyle=orthogonalEdgeStyle;rounded=0;orthogonalLoop=1;jettySize=auto;html=1;exitX=1;exitY=0.75;exitDx=0;exitDy=0;entryX=0;entryY=0.5;entryDx=0;entryDy=0;" edge="1" parent="1" source="aI-YS_FKFS8ybjmrJAlZ-2" target="aI-YS_FKFS8ybjmrJAlZ-24">
          <mxGeometry relative="1" as="geometry">
            <Array as="points">
              <mxPoint x="-864" y="1680" />
              <mxPoint x="-824" y="1680" />
              <mxPoint x="-824" y="1903" />
            </Array>
          </mxGeometry>
        </mxCell>
        <mxCell id="aI-YS_FKFS8ybjmrJAlZ-70" style="edgeStyle=orthogonalEdgeStyle;rounded=0;orthogonalLoop=1;jettySize=auto;html=1;exitX=1;exitY=0.5;exitDx=0;exitDy=0;" edge="1" parent="1" source="aI-YS_FKFS8ybjmrJAlZ-2">
          <mxGeometry relative="1" as="geometry">
            <mxPoint x="-584.0000000000002" y="1659.896551724138" as="targetPoint" />
          </mxGeometry>
        </mxCell>
        <mxCell id="aI-YS_FKFS8ybjmrJAlZ-71" style="edgeStyle=orthogonalEdgeStyle;rounded=0;orthogonalLoop=1;jettySize=auto;html=1;exitX=1;exitY=0.5;exitDx=0;exitDy=0;entryX=0;entryY=0.5;entryDx=0;entryDy=0;" edge="1" parent="1" source="aI-YS_FKFS8ybjmrJAlZ-2" target="aI-YS_FKFS8ybjmrJAlZ-22">
          <mxGeometry relative="1" as="geometry">
            <Array as="points">
              <mxPoint x="-864" y="1670" />
              <mxPoint x="-724" y="1670" />
              <mxPoint x="-724" y="1783" />
            </Array>
          </mxGeometry>
        </mxCell>
        <mxCell id="aI-YS_FKFS8ybjmrJAlZ-72" style="edgeStyle=orthogonalEdgeStyle;rounded=0;orthogonalLoop=1;jettySize=auto;html=1;exitX=1;exitY=0.25;exitDx=0;exitDy=0;entryX=0;entryY=0.5;entryDx=0;entryDy=0;" edge="1" parent="1" source="aI-YS_FKFS8ybjmrJAlZ-2" target="aI-YS_FKFS8ybjmrJAlZ-18">
          <mxGeometry relative="1" as="geometry">
            <Array as="points">
              <mxPoint x="-864" y="1650" />
              <mxPoint x="-724" y="1650" />
              <mxPoint x="-724" y="1493" />
            </Array>
          </mxGeometry>
        </mxCell>
        <mxCell id="aI-YS_FKFS8ybjmrJAlZ-2" value="1" style="swimlane;whiteSpace=wrap;html=1;rounded=1;labelBackgroundColor=none;fillColor=#A8DADC;strokeColor=#457B9D;fontColor=#1D3557;gradientColor=#FFFFFF;" vertex="1" parent="1">
          <mxGeometry x="-1024" y="1610" width="160" height="100" as="geometry" />
        </mxCell>
        <mxCell id="aI-YS_FKFS8ybjmrJAlZ-3" value="&lt;font&gt;Login&lt;/font&gt;" style="text;html=1;align=center;verticalAlign=middle;resizable=0;points=[];autosize=1;strokeColor=none;fillColor=none;labelBackgroundColor=none;fontColor=#1D3557;fontSize=19;fontStyle=1" vertex="1" parent="aI-YS_FKFS8ybjmrJAlZ-2">
          <mxGeometry x="45" y="45" width="70" height="40" as="geometry" />
        </mxCell>
        <mxCell id="aI-YS_FKFS8ybjmrJAlZ-4" value="&lt;font style=&quot;font-size: 14px;&quot;&gt;&lt;span style=&quot;white-space: pre;&quot;&gt;&#x9;&lt;/span&gt;User Credential Database&lt;/font&gt;" style="html=1;dashed=0;whiteSpace=wrap;shape=mxgraph.dfd.dataStoreID;align=left;spacingLeft=3;points=[[0,0],[0.5,0],[1,0],[0,0.5],[1,0.5],[0,1],[0.5,1],[1,1]];labelBackgroundColor=none;fillColor=#A8DADC;strokeColor=#457B9D;fontColor=#1D3557;gradientColor=#FFFFFF;gradientDirection=east;fontSize=19;fontStyle=1" vertex="1" parent="1">
          <mxGeometry x="-1050" y="1440" width="212" height="30" as="geometry" />
        </mxCell>
        <mxCell id="aI-YS_FKFS8ybjmrJAlZ-5" value="&lt;span&gt;Watcher&lt;/span&gt;" style="rounded=0;whiteSpace=wrap;html=1;labelBackgroundColor=none;fillColor=#A8DADC;strokeColor=#457B9D;fontColor=#1D3557;gradientColor=#FFFFFF;gradientDirection=radial;glass=0;fontSize=19;fontStyle=1" vertex="1" parent="1">
          <mxGeometry x="-1004" y="1840" width="120" height="60" as="geometry" />
        </mxCell>
        <mxCell id="aI-YS_FKFS8ybjmrJAlZ-6" value="" style="endArrow=classic;html=1;rounded=0;dashed=1;entryX=0.168;entryY=0.04;entryDx=0;entryDy=0;labelBackgroundColor=none;strokeColor=#457B9D;fontColor=default;exitX=0.25;exitY=1;exitDx=0;exitDy=0;entryPerimeter=0;" edge="1" parent="1" target="aI-YS_FKFS8ybjmrJAlZ-5" source="aI-YS_FKFS8ybjmrJAlZ-2">
          <mxGeometry width="50" height="50" relative="1" as="geometry">
            <mxPoint x="-1014" y="1755" as="sourcePoint" />
            <mxPoint x="-1014" y="1790" as="targetPoint" />
          </mxGeometry>
        </mxCell>
        <mxCell id="aI-YS_FKFS8ybjmrJAlZ-7" value="Invalid Crendentials" style="edgeLabel;html=1;align=center;verticalAlign=middle;resizable=0;points=[];labelBackgroundColor=none;fontColor=#1D3557;fontStyle=1;fontSize=12;" vertex="1" connectable="0" parent="aI-YS_FKFS8ybjmrJAlZ-6">
          <mxGeometry relative="1" as="geometry">
            <mxPoint y="8" as="offset" />
          </mxGeometry>
        </mxCell>
        <mxCell id="aI-YS_FKFS8ybjmrJAlZ-8" value="" style="endArrow=classic;html=1;rounded=0;exitX=0.83;exitY=-0.016;exitDx=0;exitDy=0;entryX=0.75;entryY=1;entryDx=0;entryDy=0;labelBackgroundColor=none;strokeColor=#457B9D;fontColor=default;exitPerimeter=0;" edge="1" parent="1" source="aI-YS_FKFS8ybjmrJAlZ-5" target="aI-YS_FKFS8ybjmrJAlZ-2">
          <mxGeometry width="50" height="50" relative="1" as="geometry">
            <mxPoint x="-1144" y="1772" as="sourcePoint" />
            <mxPoint x="-1094" y="1722" as="targetPoint" />
          </mxGeometry>
        </mxCell>
        <mxCell id="aI-YS_FKFS8ybjmrJAlZ-9" value="User Credentials" style="edgeLabel;html=1;align=center;verticalAlign=middle;resizable=0;points=[];rotation=0;labelBackgroundColor=none;fontColor=#1D3557;fontStyle=1;fontSize=12;" vertex="1" connectable="0" parent="aI-YS_FKFS8ybjmrJAlZ-8">
          <mxGeometry relative="1" as="geometry">
            <mxPoint y="-9" as="offset" />
          </mxGeometry>
        </mxCell>
        <mxCell id="aI-YS_FKFS8ybjmrJAlZ-10" value="" style="endArrow=classic;html=1;rounded=0;exitX=0.5;exitY=0;exitDx=0;exitDy=0;labelBackgroundColor=none;strokeColor=#457B9D;fontColor=default;entryX=0.502;entryY=1.053;entryDx=0;entryDy=0;entryPerimeter=0;" edge="1" parent="1" source="aI-YS_FKFS8ybjmrJAlZ-2" target="aI-YS_FKFS8ybjmrJAlZ-4">
          <mxGeometry width="50" height="50" relative="1" as="geometry">
            <mxPoint x="-864" y="1790" as="sourcePoint" />
            <mxPoint x="-924" y="1590" as="targetPoint" />
            <Array as="points" />
          </mxGeometry>
        </mxCell>
        <mxCell id="aI-YS_FKFS8ybjmrJAlZ-11" value="Validate Credentials" style="edgeLabel;html=1;align=center;verticalAlign=middle;resizable=0;points=[];rotation=0;labelBackgroundColor=none;fontColor=#1D3557;fontStyle=1;fontSize=12;" vertex="1" connectable="0" parent="aI-YS_FKFS8ybjmrJAlZ-10">
          <mxGeometry y="11" relative="1" as="geometry">
            <mxPoint x="1" y="-1" as="offset" />
          </mxGeometry>
        </mxCell>
        <mxCell id="aI-YS_FKFS8ybjmrJAlZ-48" style="edgeStyle=orthogonalEdgeStyle;rounded=0;orthogonalLoop=1;jettySize=auto;html=1;entryX=0;entryY=0.5;entryDx=0;entryDy=0;" edge="1" parent="1" source="aI-YS_FKFS8ybjmrJAlZ-14" target="aI-YS_FKFS8ybjmrJAlZ-32">
          <mxGeometry relative="1" as="geometry" />
        </mxCell>
        <mxCell id="aI-YS_FKFS8ybjmrJAlZ-14" value="1" style="swimlane;whiteSpace=wrap;html=1;rounded=1;startSize=23;labelBackgroundColor=none;fillColor=#A8DADC;strokeColor=#457B9D;fontColor=#1D3557;gradientColor=#FFFFFF;" vertex="1" parent="1">
          <mxGeometry x="-584" y="1180" width="165" height="85" as="geometry" />
        </mxCell>
        <mxCell id="aI-YS_FKFS8ybjmrJAlZ-15" value="&lt;font&gt;Check Blacklisted IP&#39;s&lt;/font&gt;" style="text;html=1;align=center;verticalAlign=middle;resizable=0;points=[];autosize=1;strokeColor=none;fillColor=none;labelBackgroundColor=none;fontColor=#1D3557;fontStyle=1;fontSize=15;" vertex="1" parent="aI-YS_FKFS8ybjmrJAlZ-14">
          <mxGeometry x="-5" y="37.5" width="170" height="30" as="geometry" />
        </mxCell>
        <mxCell id="aI-YS_FKFS8ybjmrJAlZ-16" value="2" style="swimlane;whiteSpace=wrap;html=1;rounded=1;startSize=23;labelBackgroundColor=none;fillColor=#A8DADC;strokeColor=#457B9D;fontColor=#1D3557;gradientColor=#FFFFFF;" vertex="1" parent="1">
          <mxGeometry x="-591.5" y="1320" width="181.5" height="100" as="geometry" />
        </mxCell>
        <mxCell id="aI-YS_FKFS8ybjmrJAlZ-17" value="&lt;font&gt;Check Whitelisted IP&#39;s&lt;/font&gt;" style="text;html=1;align=center;verticalAlign=middle;resizable=0;points=[];autosize=1;strokeColor=none;fillColor=none;labelBackgroundColor=none;fontColor=#1D3557;fontStyle=1;fontSize=15;" vertex="1" parent="aI-YS_FKFS8ybjmrJAlZ-16">
          <mxGeometry x="5.75" y="40" width="170" height="30" as="geometry" />
        </mxCell>
        <mxCell id="aI-YS_FKFS8ybjmrJAlZ-18" value="3" style="swimlane;whiteSpace=wrap;html=1;rounded=1;startSize=23;labelBackgroundColor=none;fillColor=#A8DADC;strokeColor=#457B9D;fontColor=#1D3557;gradientColor=#FFFFFF;" vertex="1" parent="1">
          <mxGeometry x="-584" y="1450" width="160" height="85" as="geometry" />
        </mxCell>
        <mxCell id="aI-YS_FKFS8ybjmrJAlZ-19" value="&lt;font&gt;Check Logs&lt;/font&gt;" style="text;html=1;align=center;verticalAlign=middle;resizable=0;points=[];autosize=1;strokeColor=none;fillColor=none;labelBackgroundColor=none;fontColor=#1D3557;fontStyle=1;fontSize=15;" vertex="1" parent="aI-YS_FKFS8ybjmrJAlZ-18">
          <mxGeometry x="30" y="32.5" width="100" height="30" as="geometry" />
        </mxCell>
        <mxCell id="aI-YS_FKFS8ybjmrJAlZ-51" style="edgeStyle=orthogonalEdgeStyle;rounded=0;orthogonalLoop=1;jettySize=auto;html=1;" edge="1" parent="1" source="aI-YS_FKFS8ybjmrJAlZ-20" target="aI-YS_FKFS8ybjmrJAlZ-34">
          <mxGeometry relative="1" as="geometry" />
        </mxCell>
        <mxCell id="aI-YS_FKFS8ybjmrJAlZ-20" value="4" style="swimlane;whiteSpace=wrap;html=1;rounded=1;startSize=23;labelBackgroundColor=none;fillColor=#A8DADC;strokeColor=#457B9D;fontColor=#1D3557;gradientColor=#FFFFFF;" vertex="1" parent="1">
          <mxGeometry x="-584" y="1600" width="160" height="85" as="geometry" />
        </mxCell>
        <mxCell id="aI-YS_FKFS8ybjmrJAlZ-21" value="&lt;font&gt;Search Logs&lt;/font&gt;" style="text;html=1;align=center;verticalAlign=middle;resizable=0;points=[];autosize=1;strokeColor=none;fillColor=none;labelBackgroundColor=none;fontColor=#1D3557;fontStyle=1;fontSize=15;" vertex="1" parent="aI-YS_FKFS8ybjmrJAlZ-20">
          <mxGeometry x="27.5" y="42.5" width="110" height="30" as="geometry" />
        </mxCell>
        <mxCell id="aI-YS_FKFS8ybjmrJAlZ-22" value="5" style="swimlane;whiteSpace=wrap;html=1;rounded=1;startSize=23;labelBackgroundColor=none;fillColor=#A8DADC;strokeColor=#457B9D;fontColor=#1D3557;gradientColor=#ffffff;gradientDirection=south;glass=0;" vertex="1" parent="1">
          <mxGeometry x="-584" y="1740" width="160" height="85" as="geometry" />
        </mxCell>
        <mxCell id="aI-YS_FKFS8ybjmrJAlZ-23" value="&lt;font&gt;Check Statistics&lt;/font&gt;" style="text;html=1;align=center;verticalAlign=middle;resizable=0;points=[];autosize=1;strokeColor=none;fillColor=none;labelBackgroundColor=none;fontColor=#1D3557;fontStyle=1;fontSize=15;" vertex="1" parent="aI-YS_FKFS8ybjmrJAlZ-22">
          <mxGeometry x="17" y="32.5" width="130" height="30" as="geometry" />
        </mxCell>
        <mxCell id="aI-YS_FKFS8ybjmrJAlZ-54" style="edgeStyle=orthogonalEdgeStyle;rounded=0;orthogonalLoop=1;jettySize=auto;html=1;exitX=1;exitY=0.5;exitDx=0;exitDy=0;" edge="1" parent="1" source="aI-YS_FKFS8ybjmrJAlZ-24" target="aI-YS_FKFS8ybjmrJAlZ-35">
          <mxGeometry relative="1" as="geometry" />
        </mxCell>
        <mxCell id="aI-YS_FKFS8ybjmrJAlZ-24" value="6" style="swimlane;whiteSpace=wrap;html=1;rounded=1;startSize=23;labelBackgroundColor=none;fillColor=#A8DADC;strokeColor=#457B9D;fontColor=#1D3557;gradientColor=#ffffff;gradientDirection=south;glass=0;" vertex="1" parent="1">
          <mxGeometry x="-584" y="1860" width="160" height="85" as="geometry" />
        </mxCell>
        <mxCell id="aI-YS_FKFS8ybjmrJAlZ-25" value="&lt;font&gt;View Agents&lt;/font&gt;" style="text;html=1;align=center;verticalAlign=middle;resizable=0;points=[];autosize=1;strokeColor=none;fillColor=none;labelBackgroundColor=none;fontColor=#1D3557;fontStyle=1;fontSize=15;" vertex="1" parent="aI-YS_FKFS8ybjmrJAlZ-24">
          <mxGeometry x="27.5" y="40" width="110" height="30" as="geometry" />
        </mxCell>
        <mxCell id="aI-YS_FKFS8ybjmrJAlZ-55" style="edgeStyle=orthogonalEdgeStyle;rounded=0;orthogonalLoop=1;jettySize=auto;html=1;exitX=1;exitY=0.5;exitDx=0;exitDy=0;" edge="1" parent="1" source="aI-YS_FKFS8ybjmrJAlZ-26" target="aI-YS_FKFS8ybjmrJAlZ-36">
          <mxGeometry relative="1" as="geometry" />
        </mxCell>
        <mxCell id="aI-YS_FKFS8ybjmrJAlZ-26" value="7" style="swimlane;whiteSpace=wrap;html=1;rounded=1;startSize=23;labelBackgroundColor=none;fillColor=#A8DADC;strokeColor=#457B9D;fontColor=#1D3557;gradientColor=#ffffff;gradientDirection=south;glass=0;" vertex="1" parent="1">
          <mxGeometry x="-584" y="1990" width="160" height="85" as="geometry" />
        </mxCell>
        <mxCell id="aI-YS_FKFS8ybjmrJAlZ-27" value="&lt;font&gt;View Wazuh Alerts&lt;/font&gt;" style="text;html=1;align=center;verticalAlign=middle;resizable=0;points=[];autosize=1;strokeColor=none;fillColor=none;labelBackgroundColor=none;fontColor=#1D3557;fontStyle=1;fontSize=15;" vertex="1" parent="aI-YS_FKFS8ybjmrJAlZ-26">
          <mxGeometry x="7" y="40" width="150" height="30" as="geometry" />
        </mxCell>
        <mxCell id="aI-YS_FKFS8ybjmrJAlZ-28" value="8" style="swimlane;whiteSpace=wrap;html=1;rounded=1;startSize=23;labelBackgroundColor=none;fillColor=#A8DADC;strokeColor=#457B9D;fontColor=#1D3557;gradientColor=#FFFFFF;" vertex="1" parent="1">
          <mxGeometry x="-584" y="2130" width="160" height="85" as="geometry" />
        </mxCell>
        <mxCell id="aI-YS_FKFS8ybjmrJAlZ-29" value="&lt;font&gt;Logout&lt;/font&gt;" style="text;html=1;align=center;verticalAlign=middle;resizable=0;points=[];autosize=1;strokeColor=none;fillColor=none;labelBackgroundColor=none;fontColor=#1D3557;fontStyle=1;fontSize=15;" vertex="1" parent="aI-YS_FKFS8ybjmrJAlZ-28">
          <mxGeometry x="47" y="40" width="70" height="30" as="geometry" />
        </mxCell>
        <mxCell id="aI-YS_FKFS8ybjmrJAlZ-32" value="&lt;span style=&quot;text-align: center; text-wrap-mode: nowrap;&quot;&gt;&amp;nbsp; &amp;nbsp; &amp;nbsp; &amp;nbsp;Blacklisted IP&#39;s Database&lt;/span&gt;" style="html=1;dashed=0;whiteSpace=wrap;shape=mxgraph.dfd.dataStoreID;align=left;spacingLeft=3;points=[[0,0],[0.5,0],[1,0],[0,0.5],[1,0.5],[0,1],[0.5,1],[1,1]];labelBackgroundColor=none;fillColor=#A8DADC;strokeColor=#457B9D;fontColor=#1D3557;gradientColor=#FFFFFF;gradientDirection=east;fontStyle=1;fontSize=14;" vertex="1" parent="1">
          <mxGeometry x="-244" y="1207.5" width="220" height="30" as="geometry" />
        </mxCell>
        <mxCell id="aI-YS_FKFS8ybjmrJAlZ-33" value="&lt;span style=&quot;text-align: center; text-wrap-mode: nowrap;&quot;&gt;&amp;nbsp; &amp;nbsp; &amp;nbsp; &amp;nbsp;Whitelisted IP&#39;s Database&lt;/span&gt;" style="html=1;dashed=0;whiteSpace=wrap;shape=mxgraph.dfd.dataStoreID;align=left;spacingLeft=3;points=[[0,0],[0.5,0],[1,0],[0,0.5],[1,0.5],[0,1],[0.5,1],[1,1]];labelBackgroundColor=none;fillColor=#A8DADC;strokeColor=#457B9D;fontColor=#1D3557;gradientColor=#FFFFFF;gradientDirection=east;fontStyle=1;fontSize=14;" vertex="1" parent="1">
          <mxGeometry x="-244" y="1355" width="220" height="30" as="geometry" />
        </mxCell>
        <mxCell id="aI-YS_FKFS8ybjmrJAlZ-34" value="&lt;font&gt;&lt;span style=&quot;white-space: pre;&quot;&gt;&#x9;&lt;/span&gt;Network Logs Database&lt;/font&gt;" style="html=1;dashed=0;whiteSpace=wrap;shape=mxgraph.dfd.dataStoreID;align=left;spacingLeft=3;points=[[0,0],[0.5,0],[1,0],[0,0.5],[1,0.5],[0,1],[0.5,1],[1,1]];labelBackgroundColor=none;fillColor=#A8DADC;strokeColor=#457B9D;fontColor=#1D3557;gradientColor=#FFFFFF;gradientDirection=east;fontStyle=1;fontSize=14;" vertex="1" parent="1">
          <mxGeometry x="-232" y="1625" width="208" height="35" as="geometry" />
        </mxCell>
        <mxCell id="aI-YS_FKFS8ybjmrJAlZ-35" value="&lt;font&gt;&lt;span style=&quot;white-space: pre;&quot;&gt;&#x9;&lt;/span&gt;Agent&amp;nbsp;Database&lt;/font&gt;" style="html=1;dashed=0;whiteSpace=wrap;shape=mxgraph.dfd.dataStoreID;align=left;spacingLeft=3;points=[[0,0],[0.5,0],[1,0],[0,0.5],[1,0.5],[0,1],[0.5,1],[1,1]];labelBackgroundColor=none;fillColor=#A8DADC;strokeColor=#457B9D;fontColor=#1D3557;gradientColor=#FFFFFF;gradientDirection=east;fontStyle=1;fontSize=14;" vertex="1" parent="1">
          <mxGeometry x="-200.5" y="1885" width="145" height="35" as="geometry" />
        </mxCell>
        <mxCell id="aI-YS_FKFS8ybjmrJAlZ-36" value="&lt;font&gt;&lt;span style=&quot;white-space: pre;&quot;&gt;&#x9;&lt;/span&gt;&lt;span style=&quot;text-align: center; text-wrap-mode: nowrap;&quot;&gt;&amp;nbsp;Wazuh Alerts&lt;/span&gt;&amp;nbsp;Database&lt;/font&gt;" style="html=1;dashed=0;whiteSpace=wrap;shape=mxgraph.dfd.dataStoreID;align=left;spacingLeft=3;points=[[0,0],[0.5,0],[1,0],[0,0.5],[1,0.5],[0,1],[0.5,1],[1,1]];labelBackgroundColor=none;fillColor=#A8DADC;strokeColor=#457B9D;fontColor=#1D3557;gradientColor=#FFFFFF;gradientDirection=east;fontStyle=1;fontSize=14;" vertex="1" parent="1">
          <mxGeometry x="-232" y="2015" width="208" height="35" as="geometry" />
        </mxCell>
        <mxCell id="aI-YS_FKFS8ybjmrJAlZ-52" style="edgeStyle=orthogonalEdgeStyle;rounded=0;orthogonalLoop=1;jettySize=auto;html=1;exitX=1;exitY=0.5;exitDx=0;exitDy=0;entryX=0.002;entryY=0.26;entryDx=0;entryDy=0;entryPerimeter=0;" edge="1" parent="1" source="aI-YS_FKFS8ybjmrJAlZ-18" target="aI-YS_FKFS8ybjmrJAlZ-34">
          <mxGeometry relative="1" as="geometry" />
        </mxCell>
        <mxCell id="aI-YS_FKFS8ybjmrJAlZ-53" style="edgeStyle=orthogonalEdgeStyle;rounded=0;orthogonalLoop=1;jettySize=auto;html=1;exitX=1;exitY=0.5;exitDx=0;exitDy=0;entryX=0.003;entryY=0.762;entryDx=0;entryDy=0;entryPerimeter=0;" edge="1" parent="1" source="aI-YS_FKFS8ybjmrJAlZ-22" target="aI-YS_FKFS8ybjmrJAlZ-34">
          <mxGeometry relative="1" as="geometry" />
        </mxCell>
        <mxCell id="aI-YS_FKFS8ybjmrJAlZ-73" style="edgeStyle=orthogonalEdgeStyle;rounded=0;orthogonalLoop=1;jettySize=auto;html=1;exitX=1;exitY=0.25;exitDx=0;exitDy=0;entryX=-0.004;entryY=0.107;entryDx=0;entryDy=0;entryPerimeter=0;" edge="1" parent="1" source="aI-YS_FKFS8ybjmrJAlZ-2" target="aI-YS_FKFS8ybjmrJAlZ-17">
          <mxGeometry relative="1" as="geometry">
            <Array as="points">
              <mxPoint x="-864" y="1640" />
              <mxPoint x="-814" y="1640" />
              <mxPoint x="-814" y="1363" />
            </Array>
          </mxGeometry>
        </mxCell>
        <mxCell id="aI-YS_FKFS8ybjmrJAlZ-74" style="edgeStyle=orthogonalEdgeStyle;rounded=0;orthogonalLoop=1;jettySize=auto;html=1;entryX=0.003;entryY=0.149;entryDx=0;entryDy=0;entryPerimeter=0;" edge="1" parent="1" target="aI-YS_FKFS8ybjmrJAlZ-15">
          <mxGeometry relative="1" as="geometry">
            <mxPoint x="-864" y="1640" as="sourcePoint" />
            <Array as="points">
              <mxPoint x="-824" y="1635" />
              <mxPoint x="-824" y="1222" />
            </Array>
          </mxGeometry>
        </mxCell>
        <mxCell id="aI-YS_FKFS8ybjmrJAlZ-76" value="&lt;font&gt;Read IPs&lt;/font&gt;" style="edgeLabel;html=1;align=center;verticalAlign=middle;resizable=0;points=[];labelBackgroundColor=none;fontColor=#1D3557;fontSize=12;fontStyle=1" vertex="1" connectable="0" parent="1">
          <mxGeometry x="-454" y="1120.0033333333333" as="geometry">
            <mxPoint x="112" y="234" as="offset" />
          </mxGeometry>
        </mxCell>
        <mxCell id="aI-YS_FKFS8ybjmrJAlZ-78" value="&lt;font style=&quot;color: rgb(0, 0, 102);&quot;&gt;Search Logs&lt;/font&gt;" style="edgeLabel;html=1;align=center;verticalAlign=middle;resizable=0;points=[];fontSize=12;fontStyle=1" vertex="1" connectable="0" parent="1">
          <mxGeometry x="-653.9999999999995" y="1642.5" as="geometry">
            <mxPoint x="275" y="-10" as="offset" />
          </mxGeometry>
        </mxCell>
        <mxCell id="aI-YS_FKFS8ybjmrJAlZ-79" value="Read Logs" style="edgeLabel;html=1;align=center;verticalAlign=middle;resizable=0;points=[];rotation=0;labelBackgroundColor=none;fontColor=#1D3557;fontSize=12;fontStyle=1" vertex="1" connectable="0" parent="1">
          <mxGeometry x="-55.497575754570335" y="1170" as="geometry">
            <mxPoint x="-323" y="604" as="offset" />
          </mxGeometry>
        </mxCell>
        <mxCell id="aI-YS_FKFS8ybjmrJAlZ-80" value="&lt;span style=&quot;color: rgb(29, 53, 87);&quot;&gt;Read Agents&lt;/span&gt;" style="edgeLabel;html=1;align=center;verticalAlign=middle;resizable=0;points=[];fontSize=12;fontStyle=1" vertex="1" connectable="0" parent="1">
          <mxGeometry x="-304" y="1890.004705882353" as="geometry">
            <mxPoint x="-10" y="-3" as="offset" />
          </mxGeometry>
        </mxCell>
        <mxCell id="aI-YS_FKFS8ybjmrJAlZ-81" value="&lt;span style=&quot;color: rgb(29, 53, 87); background-color: rgb(255, 255, 255);&quot;&gt;Read Wazuh Alerts&lt;/span&gt;" style="edgeLabel;html=1;align=center;verticalAlign=middle;resizable=0;points=[];fontSize=12;fontStyle=1" vertex="1" connectable="0" parent="1">
          <mxGeometry x="-324" y="2019.995294117647" as="geometry" />
        </mxCell>
        <mxCell id="aI-YS_FKFS8ybjmrJAlZ-82" style="edgeStyle=orthogonalEdgeStyle;rounded=0;orthogonalLoop=1;jettySize=auto;html=1;exitX=1;exitY=0.5;exitDx=0;exitDy=0;" edge="1" parent="1" source="aI-YS_FKFS8ybjmrJAlZ-16">
          <mxGeometry relative="1" as="geometry">
            <mxPoint x="-246" y="1370" as="targetPoint" />
          </mxGeometry>
        </mxCell>
      </root>
    </mxGraphModel>
  </diagram>
</mxfile>
